# xmcd
#
# Track frame offsets: 
#        150
#        13741
#        29069
#        46035
#        62738
#        82406
#        97947
#        110195
#        126518
#        144492
#        157056
#        177779
#
# Disc length: 2636 seconds
#
# Revision: 0
# Processed by: cddbd v1.4b42PL1 Copyright (c) Steve Scherf et al.
# Submitted via: ExactAudioCopy v0.90a11
#
DISCID=ac0a4a0c
DTITLE=Nature - For All Seasons (Unreleased Tracks)
DYEAR=1900
DGENRE=
TTITLE0=Shit Like This
TTITLE1=Natures Shine
TTITLE2=Smoke
TTITLE3=Young Love
TTITLE4=Flames
TTITLE5=All Out
TTITLE6=Bidding It
TTITLE7=Don't Stop
TTITLE8=Roots
TTITLE9=Shine
TTITLE10=Remember
TTITLE11=Triple Threat
EXTD=
EXTT0=
EXTT1=
EXTT2=
EXTT3=
EXTT4=
EXTT5=
EXTT6=
EXTT7=
EXTT8=
EXTT9=
EXTT10=
EXTT11=
PLAYORDER=
